<svg width="424" height="109" viewBox="0 0 424 109" fill="none" xmlns="http://www.w3.org/2000/svg">
<path fill-rule="evenodd" clip-rule="evenodd" d="M64.0855 53.4915V106.983H76.9172H89.7489V53.4915V0H76.9172H64.0855V53.4915ZM196.814 3.69714C193.483 3.99519 190.577 5.37722 188.194 7.79594C185.144 10.8933 183.675 15.5097 184.516 19.3591C185.162 22.3123 186.202 24.3232 188.139 26.3605C189.288 27.5698 190.25 28.3007 191.687 29.0585C194.284 30.4276 197.017 30.9353 199.922 30.5887C206.556 29.7976 211.731 24.258 212.137 17.514C212.27 15.2961 211.418 12.2562 210.057 10.0963C208.196 7.14423 205.003 4.81498 201.773 4.05375C200.041 3.64565 198.571 3.53994 196.814 3.69714ZM363.262 8.46685C363.237 8.53944 362.408 11.0201 361.421 13.9795C359.348 20.1941 357.842 24.7004 352.967 39.2746L349.448 49.7988H358.89H368.333L369.52 47.2403C370.172 45.8332 371.357 43.2812 372.152 41.5694C372.947 39.8575 373.704 38.2195 373.833 37.9294C374.083 37.3722 375.378 34.5755 377.254 30.544C377.875 29.2093 378.797 27.2153 379.302 26.1127C380.234 24.0773 381.125 22.1517 383.72 16.5644C384.515 14.8526 385.556 12.5974 386.033 11.5529C386.51 10.5084 387.035 9.38655 387.199 9.0598C387.363 8.73315 387.467 8.43647 387.432 8.40038C387.396 8.36441 381.953 8.33497 375.338 8.33497C365.81 8.33497 363.299 8.3624 363.262 8.46685ZM396.131 35.4146C394.254 35.5462 391.084 36.051 389.293 36.5035C380.369 38.7576 373.667 44.0894 370.693 51.2995C370.267 52.3331 369.918 53.5263 369.558 55.1796C369.397 55.9194 369.363 56.538 369.364 58.7141C369.364 61.4496 369.409 61.902 369.897 64.0421C370.203 65.3817 370.344 65.8454 370.781 66.9435C372.924 72.3314 377.444 76.079 384.141 78.0201C385.559 78.4311 387.663 78.8712 389.926 79.2302C391.913 79.5456 392.627 79.7209 394.133 80.263C397.2 81.3676 398.983 82.6616 399.515 84.1696C399.914 85.3016 399.665 87.219 398.98 88.2816C397.8 90.1127 395.413 90.859 390.662 90.882C388.559 90.8921 388.173 90.8665 387.191 90.6513C383.489 89.8397 379.138 87.8025 374.389 84.6565C373.567 84.1119 372.869 83.6662 372.838 83.6662C372.807 83.6662 372.782 83.7085 372.782 83.7602C372.782 83.8119 370.793 87.6444 368.362 92.2769C365.931 96.9093 363.961 100.748 363.985 100.808C364.009 100.868 364.85 101.352 365.854 101.885C373.284 105.824 382.051 108.412 389.557 108.882C395.763 109.27 401.541 108.488 406.701 106.56C409.382 105.559 412.783 103.636 414.905 101.921C416.081 100.972 417.929 99.0985 418.864 97.9095C421.571 94.4666 423.231 90.4044 423.842 85.7337C424.029 84.3039 424.056 81.1835 423.892 79.8653C423.514 76.8053 422.569 74.2909 420.834 71.7245C418.639 68.4774 414.372 65.56 409.54 64.0017C407.03 63.1923 405.339 62.8227 401.758 62.3017C399.461 61.9674 398.524 61.7367 397.299 61.204C395.766 60.5368 394.766 59.7132 394.181 58.6354C393.784 57.9035 393.698 56.6588 393.981 55.7552C394.676 53.5392 397.255 52.1235 400.602 52.1208C402.133 52.1194 405.113 52.521 407.234 53.0145C409.155 53.4615 412.232 54.5198 413.801 55.2731C414.177 55.4537 414.545 55.6015 414.619 55.6015C414.694 55.6016 414.96 55.1624 415.212 54.6257C415.463 54.089 416.367 52.2255 417.22 50.4846C418.073 48.7438 419.23 46.3699 419.792 45.2093C420.355 44.0487 421.161 42.3944 421.584 41.533C422.139 40.4034 422.317 39.9447 422.225 39.8873C421.99 39.742 416.611 38.0008 415.221 37.6206C411.352 36.5619 407.51 35.8563 403.704 35.5054C402.153 35.3624 397.645 35.3083 396.131 35.4146ZM33.2159 35.6078C26.908 36.5135 20.8942 38.8783 15.4935 42.577C11.1866 45.5268 7.26232 49.741 4.79001 54.0718C2.31371 58.4094 0.963654 62.6751 0.171562 68.6643C-0.0394241 70.2595 -0.0602492 74.6616 0.133803 76.6501C0.822296 83.7062 2.99474 89.2989 7.04607 94.4449C12.2502 101.055 21.0213 106.23 30.4287 108.239C33.4573 108.886 33.9855 108.936 37.686 108.924C42.0417 108.909 44.6858 108.67 48.2016 107.972C51.0692 107.402 53.9175 106.336 55.3295 105.304L55.7765 104.977V95.1657C55.7765 89.6078 55.7365 85.3543 55.6842 85.3543C55.6335 85.3543 55.5325 85.4262 55.4598 85.5141C55.2589 85.7568 53.6803 86.6874 52.6939 87.1446C51.8408 87.5399 50.063 88.1347 48.7822 88.4532C46.9271 88.9146 43.0447 89.21 41.0185 89.044C37.8675 88.7858 35.1947 87.8382 32.5849 86.0541C31.4584 85.2842 29.4204 83.2958 28.6234 82.1891C26.9754 79.9014 25.9336 77.3524 25.5183 74.5927C25.3775 73.6571 25.37 73.2553 25.4702 72.0078C25.9225 66.3791 28.0949 61.7223 31.5579 58.958C34.7202 56.4339 39.4484 55.1999 44.4449 55.5948C49.0231 55.9566 52.4665 57.2099 55.0403 59.4511L55.7239 60.0465L55.7521 49.7793L55.7803 39.512L55.5418 39.3109C55.1204 38.9557 53.0317 38.0181 51.5694 37.5279C49.0238 36.6745 46.4376 36.1634 42.3664 35.7093C40.2435 35.4726 34.5946 35.4099 33.2159 35.6078ZM125.825 35.5686C115.042 36.8154 105.049 43.67 99.6817 53.5002C97.8872 56.7869 96.4555 60.8868 95.8048 64.6021C95.1909 68.1075 95.1698 68.3732 95.1676 72.6409C95.1654 76.8157 95.1852 77.0952 95.7022 80.2191C97.1365 88.8842 101.202 96.0979 107.584 101.299C113.835 106.395 122.344 109.261 130.295 108.949C132.319 108.87 133.564 108.698 135.659 108.207C139.291 107.357 142.72 105.854 145.756 103.781C147.109 102.857 149.151 101.046 149.858 100.143C150.089 99.8479 150.314 99.6042 150.357 99.6019C150.401 99.5995 150.436 101.259 150.436 103.29V106.983H162.637H174.837V72.5354V38.0877H162.638H150.439L150.412 41.1662L150.384 44.2449L149.753 43.6633C145.41 39.6614 139.877 36.9226 134.134 35.931C133.295 35.7863 132.119 35.6188 131.52 35.5589C130.247 35.4316 126.961 35.4372 125.825 35.5686ZM310.674 35.7754C304.094 36.3063 299.242 37.5028 294.658 39.7248C291.352 41.3271 288.906 43.0634 286.468 45.5369C284.619 47.4124 283.485 48.8669 282.116 51.1176C279.392 55.5975 277.804 60.7901 277.051 67.6821C276.829 69.7095 276.863 76.0637 277.105 77.9148C277.413 80.2624 277.662 81.6471 278.069 83.265C282.005 98.93 294.108 107.821 312.936 108.878C322.025 109.389 329.885 108.289 335.917 105.663C340.011 103.881 343.693 101.037 346.502 97.4875C347.203 96.6019 349.222 93.6749 349.222 93.5444C349.222 93.5172 349.464 93.0758 349.76 92.5634C350.269 91.6809 352.527 87.1411 352.991 86.0665L353.207 85.5653H341.17C332.361 85.5653 329.133 85.597 329.133 85.6834C329.133 85.9068 328.381 87.0424 327.837 87.641C325.445 90.2726 321.816 91.5792 316.9 91.5792C314.133 91.5792 312.227 91.2998 310.115 90.5843C304.689 88.7463 301.434 83.884 301.422 77.5996L301.419 75.9115L327.422 75.885L353.425 75.8584L353.505 75.5684C353.636 75.093 353.59 69.2678 353.445 67.9458C352.917 63.1467 351.992 59.3025 350.512 55.7674C348.682 51.3952 346.607 48.3047 343.424 45.2093C341.934 43.7602 340.846 42.8852 339.125 41.753C335.222 39.1855 331.46 37.7338 325.552 36.5148C324.394 36.2759 321.435 35.9227 319.299 35.7683C317.603 35.6457 312.226 35.6502 310.674 35.7754ZM271.969 36.3047C262.706 36.884 256.069 39.2647 251.515 43.6422C250.149 44.956 249.31 45.9942 247.821 48.2133L246.726 49.8458L246.699 43.9662L246.672 38.0868L233.92 38.1136L221.168 38.1404V72.5354V106.93L233.916 106.957L246.664 106.984L246.702 91.606C246.742 75.5195 246.749 75.2778 247.206 72.6409C247.553 70.6417 248.432 67.8985 249.254 66.2528C250.386 63.9859 252.35 61.7045 254.273 60.422C258.036 57.9125 263.108 57.0618 268.929 57.9641C271.155 58.3092 273.676 58.9491 274.848 59.4667C275.159 59.604 275.431 59.7164 275.453 59.7164C275.475 59.7164 275.492 54.4226 275.492 47.9525V36.1885L274.414 36.2038C273.821 36.2123 272.721 36.2577 271.969 36.3047ZM185.671 72.5354V106.983H198.24H210.808V72.5354V38.0877H198.24H185.671V72.5354ZM315.355 51.1833C310.14 51.5422 305.38 54.5109 302.686 59.0837C302.171 59.9579 301.366 61.7015 301.366 61.9426C301.366 62.0606 330.887 62.0719 330.96 61.9538C331.042 61.8208 330.542 60.4312 330.049 59.4251C328.215 55.6759 324.819 52.8106 320.908 51.7109C319.106 51.2046 317.401 51.0425 315.355 51.1833ZM133.345 57.0735C131.932 57.3268 131.542 57.4403 130.202 57.9891C125.34 59.9798 121.77 64.2996 120.729 69.4486C120.348 71.3364 120.419 74.3409 120.89 76.2015C122.355 82.0006 126.999 86.5437 132.73 87.7859C134.341 88.1351 136.962 88.1858 138.632 87.9001C142.602 87.2208 146.121 85.0466 148.56 81.7671C151.259 78.1384 152.237 73.7449 151.338 69.2907C150.575 65.5149 148.266 61.9637 145.122 59.7322C144.053 58.9734 142.057 57.9646 140.827 57.561C138.733 56.874 135.597 56.6698 133.345 57.0735Z" fill="#1A1E22"/>
</svg>
