<svg width="378" height="97" viewBox="0 0 378 97" fill="none" xmlns="http://www.w3.org/2000/svg">
<path d="M130.826 55.3014C130.312 52.8993 129.04 50.726 127.197 49.1022C126.176 48.195 124.853 47.2878 123.266 46.4562C125.761 45.171 127.462 43.5834 128.331 41.7312C129.238 39.879 129.692 37.9134 129.692 35.7966C129.692 33.6798 129.389 31.8654 128.822 30.0888C128.255 28.35 127.197 26.8002 125.685 25.515C124.211 24.192 122.17 23.1714 119.599 22.4532C117.029 21.6972 113.74 21.3192 109.809 21.3192H101.569L90.531 46.3428V74.8818H111.132C114.912 74.8818 118.049 74.466 120.62 73.5966C123.19 72.7272 125.231 71.5932 126.781 70.119C128.369 68.6826 129.503 66.9438 130.145 64.9782C130.826 62.9748 131.166 60.8202 131.166 58.59C131.166 57.4938 131.053 56.4354 130.826 55.3014ZM101.38 30.0888H109.469C112.871 30.0888 115.252 30.5424 116.689 31.4874C118.087 32.4324 118.805 33.9822 118.805 36.1746C118.805 38.2536 118.276 39.8034 117.142 40.8996C116.046 42.0336 114.005 42.5628 111.056 42.5628H101.304L101.38 30.0888ZM119.864 61.6896C119.561 62.5968 119.032 63.3906 118.314 64.071C117.558 64.7514 116.575 65.2428 115.328 65.6208C114.118 65.961 112.568 66.15 110.716 66.15H101.342V51.597H111.888C115.025 51.597 117.218 52.2018 118.465 53.3736C119.713 54.5832 120.355 56.3598 120.355 58.6278C120.355 59.7618 120.166 60.7824 119.864 61.6896ZM135.362 21.3192V74.8818H145.832V21.3192H135.362ZM188.093 53.676C188.093 47.817 186.581 43.1676 183.557 39.7278C180.533 36.2502 176.035 34.5492 170.024 34.5492C167.114 34.5492 164.468 35.0028 162.049 35.9478C159.629 36.855 157.588 38.2158 155.887 40.0302C154.148 41.8068 152.825 44.037 151.88 46.6074C150.898 49.1778 150.444 52.1262 150.444 55.4148C150.444 61.992 152.069 67.1328 155.358 70.7238C158.647 74.3148 163.523 76.1292 170.024 76.1292C175.43 76.1292 179.55 74.9952 182.385 72.7272C185.22 70.4592 186.959 67.095 187.677 62.7102H177.471C176.715 66.2256 174.258 67.9644 170.1 67.9644C167.114 67.9644 164.846 67.0572 163.372 65.2806C161.86 63.504 161.066 61.047 160.952 57.9096H188.093V53.676ZM161.104 50.9544C161.141 49.7448 161.368 48.6108 161.784 47.5902C162.162 46.5696 162.767 45.6624 163.485 44.8686C164.203 44.1126 165.11 43.47 166.169 43.0164C167.227 42.5628 168.437 42.336 169.835 42.336C172.633 42.336 174.674 43.092 176.035 44.5662C177.358 46.0782 178 48.195 178 50.8788L161.104 50.9544ZM224.721 38.0268C222.566 35.6832 219.278 34.5114 214.817 34.5114C212.512 34.5114 210.319 35.0406 208.165 36.0612C206.048 37.1196 204.196 38.7828 202.646 41.0886V35.721H192.44V74.8818H202.986V51.3324C202.986 50.1606 203.213 49.1022 203.666 48.1194C204.12 47.1366 204.725 46.305 205.443 45.6246C206.312 44.8686 207.22 44.3016 208.202 43.8858C209.185 43.47 210.319 43.281 211.718 43.281C213.457 43.281 214.855 43.7724 215.914 44.7552C216.972 45.7758 217.501 47.6658 217.501 50.3874V74.844H227.934V48.951C227.934 43.9992 226.876 40.3326 224.721 38.0268ZM260.291 21.3192V39.6522C258.59 37.6488 256.775 36.288 254.848 35.5698C252.92 34.8894 250.992 34.5114 249.026 34.5114C246.38 34.5114 243.999 35.0028 241.882 35.9856C239.803 37.0062 238.027 38.4048 236.59 40.2192C235.116 42.0714 234.02 44.226 233.226 46.7586C232.432 49.2912 232.054 52.0506 232.054 55.1124C232.054 61.6518 233.377 66.7926 236.099 70.497C238.82 74.2014 242.903 76.0914 248.422 76.0914C253.487 76.0914 257.569 73.9746 260.555 69.7032V74.8818H270.761V21.3192H260.291ZM260.366 56.2086C260.366 58.4766 260.102 60.291 259.648 61.7274C259.195 63.126 258.439 64.3356 257.456 65.3562C255.83 66.7926 253.827 67.5108 251.294 67.5108C250.123 67.5108 249.064 67.3218 248.081 66.906C247.061 66.4902 246.191 65.772 245.473 64.7892C244.717 63.8064 244.15 62.5212 243.697 60.9714C243.243 59.3838 243.054 57.4182 243.054 55.0746C243.054 52.92 243.281 51.0678 243.734 49.518C244.188 47.9682 244.793 46.7208 245.587 45.7758C246.343 44.793 247.288 44.1126 248.308 43.659C249.367 43.2054 250.425 42.9786 251.597 42.9786C252.655 42.9786 253.714 43.092 254.772 43.3566C255.868 43.659 256.851 44.226 257.758 45.1332C258.703 46.0782 259.384 47.2878 259.837 48.7998C260.253 50.274 260.48 52.3152 260.48 54.81L260.366 56.2086ZM312.719 53.676C312.719 47.817 311.207 43.1676 308.183 39.7278C305.159 36.2502 300.661 34.5492 294.651 34.5492C291.74 34.5492 289.094 35.0028 286.675 35.9478C284.256 36.855 282.215 38.2158 280.514 40.0302C278.775 41.8068 277.452 44.037 276.507 46.6074C275.524 49.1778 275.071 52.1262 275.071 55.4148C275.071 61.992 276.696 67.1328 279.985 70.7238C283.273 74.3148 288.149 76.1292 294.651 76.1292C300.056 76.1292 304.177 74.9952 307.012 72.7272C309.847 70.4592 311.585 67.095 312.304 62.7102H302.098C301.342 66.2256 298.885 67.9644 294.727 67.9644C291.74 67.9644 289.472 67.0572 287.998 65.2806C286.486 63.504 285.692 61.047 285.579 57.9096H312.719V53.676ZM285.73 50.9544C285.768 49.7448 285.995 48.6108 286.411 47.5902C286.826 46.5696 287.393 45.6624 288.112 44.8686C288.83 44.1126 289.737 43.47 290.795 43.0164C291.854 42.5628 293.063 42.336 294.462 42.336C297.259 42.336 299.3 43.092 300.661 44.5662C301.984 46.0782 302.627 48.195 302.627 50.8788L285.73 50.9544ZM340.465 35.1918C339.822 35.1162 338.99 35.0784 337.97 35.0784C335.929 35.0784 333.963 35.6076 332.111 36.6282C330.259 37.6488 328.709 39.1986 327.386 41.2398V35.721H317.18V74.8818H327.726V52.2396C327.726 51.1812 327.915 50.1606 328.331 49.1778C328.784 48.195 329.427 47.25 330.334 46.4562C331.166 45.7002 332.111 45.171 333.169 44.9064C334.228 44.6418 335.286 44.4906 336.458 44.4906C338.197 44.4906 339.671 44.6418 340.88 44.9442L342.166 35.4186C341.712 35.343 341.107 35.2674 340.465 35.1918ZM377.395 58.968C376.979 57.5694 376.223 56.3598 375.127 55.3392C374.031 54.2808 372.595 53.4492 370.818 52.731C369.004 52.0506 366.736 51.4458 363.976 51.03L359.024 50.1984C356.756 49.8204 355.244 49.329 354.488 48.7242C353.695 48.1572 353.317 47.25 353.317 46.0026C353.317 45.6246 353.43 45.171 353.657 44.7174C353.884 44.2638 354.262 43.8858 354.791 43.5456C355.32 43.2054 356.038 42.903 356.945 42.6762C357.89 42.4494 359.062 42.336 360.461 42.336C362.956 42.336 364.77 42.7518 365.904 43.6212C367.038 44.4528 367.832 45.8136 368.248 47.5902L377.622 46.4184C377.32 44.7552 376.828 43.2054 376.148 41.769C375.467 40.3326 374.485 39.0474 373.162 38.0268C371.839 36.9684 370.138 36.1368 368.021 35.532C365.904 34.8894 363.296 34.587 360.196 34.587C357.701 34.587 355.396 34.8516 353.317 35.4564C351.238 36.0234 349.461 36.855 347.949 37.8756C346.437 38.934 345.265 40.2192 344.434 41.6934C343.602 43.2054 343.186 44.9064 343.186 46.7964C343.186 50.5008 344.358 53.2602 346.702 55.1124C349.045 56.9268 352.561 58.212 357.323 58.968L362.729 59.8752C364.657 60.1776 365.942 60.7068 366.584 61.425C367.265 62.181 367.605 63.0504 367.605 64.0332C367.605 65.4318 367.076 66.4524 365.98 67.095C364.883 67.6998 363.107 68.04 360.612 68.04C358.533 68.04 356.719 67.662 355.207 66.9816C353.732 66.3012 352.787 64.7892 352.447 62.4834H342.392C342.544 65.1294 343.148 67.3218 344.245 69.0606C345.303 70.8372 346.702 72.198 348.365 73.2564C350.066 74.3148 351.956 75.0708 354.073 75.4866C356.189 75.9024 358.42 76.1292 360.801 76.1292C366.66 76.1292 371.007 74.9952 373.804 72.765C376.601 70.5348 378 67.5486 378 63.882C378 62.0298 377.811 60.4044 377.395 58.968ZM103.95 0L61.614 96.201H36.9684L79.3422 0H103.95ZM66.9816 0L24.6456 96.201H0L42.3738 0H66.9816Z" fill="#1A1E22"/>
</svg>
