<svg width="1554" height="308" viewBox="0 0 1554 308" fill="none" xmlns="http://www.w3.org/2000/svg">
<path d="M300.862 226.945C297.302 226.318 293.722 225.812 290.202 225.003C271.085 220.593 255.833 210.762 246.406 193.183C231.72 165.813 238.375 125.841 272.279 108.585C299.79 94.5871 327.645 95.639 353.255 113.602C371.461 126.367 379.088 145.078 378.137 167.108C376.883 196.865 355.683 219.703 325.117 225.468C322.366 225.994 319.615 226.439 316.843 226.925H300.822L300.862 226.945ZM308.833 198.564C333.269 198.604 349.796 178.031 344.051 154.748C339.924 138.019 324.773 127.257 306.688 128.187C284.133 129.361 268.719 149.225 273.29 171.255C276.689 187.6 290.91 198.523 308.833 198.564Z" fill="black"/>
<path d="M1437 223.548H1404.57V178.134H1344.33V223.487H1312.25V103.226H1344.31V147.265H1404.51V103.125H1437V223.548Z" fill="black"/>
<path d="M155.76 226.952C151.735 226.305 147.648 225.88 143.663 224.97C121.391 219.893 104.379 207.917 97.0964 185.726C88.9442 160.885 92.5854 137.702 111.398 118.364C121.857 107.622 135.248 102.241 149.975 100.4C165.106 98.519 180.035 99.7529 194.256 105.619C211.653 112.821 223.001 125.403 227.35 143.892C227.411 144.115 227.391 144.358 227.411 144.762C226.845 144.823 226.319 144.944 225.773 144.944C215.173 144.944 204.593 144.985 193.993 144.904C193.184 144.904 191.97 144.479 191.667 143.872C186.63 134.122 178.073 129.712 167.675 128.438C155.659 126.961 144.695 129.672 136.179 138.653C126.267 149.112 124.304 161.714 128.633 175.065C132.922 188.234 142.814 195.456 156.246 197.863C164.034 199.259 171.721 198.409 179.003 195.153C184.425 192.725 188.41 188.76 191.222 183.521C191.646 182.732 192.799 181.822 193.629 181.801C204.472 181.68 215.294 181.721 226.137 181.741C226.521 181.741 226.905 181.842 227.492 181.923C225.651 190.722 221.929 198.45 216.184 205.186C206.11 216.98 192.86 222.907 177.85 225.496C174.391 226.103 170.871 226.487 167.392 226.973H155.74L155.76 226.952Z" fill="black"/>
<path d="M1127.92 167.071C1130.94 168.224 1134.07 169.114 1136.9 170.59C1144.95 174.778 1147.67 182.121 1148.23 190.617C1148.82 199.295 1149.41 207.953 1150.17 216.611C1150.38 218.897 1151.25 221.122 1151.89 223.631C1149.26 223.631 1146.69 223.631 1144.13 223.631C1136.6 223.631 1129.08 223.57 1121.57 223.671C1119.93 223.691 1119.18 223.044 1118.94 221.588C1118.19 216.915 1117.3 212.242 1116.8 207.549C1116.29 202.754 1116.31 197.899 1115.85 193.085C1115.12 185.782 1112.29 182.465 1105.02 182.262C1091.06 181.858 1077.07 182.141 1062.85 182.141V223.408H1030.56V103.289C1031.03 103.228 1031.47 103.147 1031.94 103.147C1059.67 103.147 1087.42 103.066 1115.16 103.289C1125.05 103.37 1134.44 105.838 1142.16 112.412C1151.89 120.706 1154.66 131.508 1152.24 143.645C1149.79 155.844 1141.7 162.984 1130.03 166.464C1129.28 166.686 1128.53 166.889 1127.9 167.071H1127.92ZM1062.87 130.294V154.953C1063.61 155.014 1064.24 155.115 1064.87 155.115C1078.44 155.115 1092.02 155.115 1105.59 155.115C1106.8 155.115 1108.02 154.994 1109.21 154.792C1115.97 153.578 1119.89 149.026 1119.85 142.492C1119.81 135.878 1115.99 131.67 1108.95 130.557C1107.92 130.396 1106.86 130.315 1105.81 130.315C1092.4 130.315 1078.99 130.315 1065.58 130.315C1064.71 130.315 1063.86 130.315 1062.87 130.315V130.294Z" fill="black"/>
<path d="M743.633 103.227H852.121V131.325H775.655V149.389H850.28V177.062H775.635V195.39H852.08V223.467H743.633V103.227Z" fill="black"/>
<path d="M392.115 223.489C392.115 212.303 392.074 201.359 392.196 190.395C392.196 189.626 393.187 188.675 393.936 188.129C418.453 170.51 442.991 152.911 467.528 135.311C469.228 134.098 470.927 132.864 473.051 131.326H392.297V103.289H511.243V105.939C511.243 115.528 511.182 125.116 511.284 134.725C511.304 136.647 510.656 137.779 509.119 138.872C483.934 156.977 458.81 175.122 433.665 193.267C432.856 193.854 432.067 194.501 430.772 195.472H510.737V223.489H392.074H392.115Z" fill="black"/>
<path d="M910.542 197.56C906.941 205.551 903.28 213.521 899.74 221.552C899.052 223.089 898.283 223.696 896.524 223.676C886.733 223.574 876.942 223.635 867.171 223.635H864.663C865.634 221.491 866.443 219.589 867.313 217.708C884.447 180.305 901.581 142.902 918.654 105.478C919.463 103.698 920.373 103.051 922.376 103.071C934.999 103.172 947.602 103.131 960.224 103.131C961.034 103.131 961.843 103.131 962.713 103.131C981.06 143.225 999.388 183.258 1017.88 223.635C1016.56 223.635 1015.63 223.635 1014.7 223.635C1004.75 223.635 994.796 223.595 984.863 223.676C983.346 223.676 982.577 223.231 981.97 221.835C978.673 214.31 975.255 206.845 971.876 199.36C971.371 198.248 970.966 197.378 969.327 197.378C950.069 197.459 930.832 197.439 911.574 197.439C911.25 197.439 910.947 197.499 910.542 197.56ZM960.508 170.271C953.873 155.646 947.359 141.263 940.602 126.374C933.846 141.283 927.312 155.666 920.697 170.271H960.508Z" fill="black"/>
<path d="M1215.74 132.8H1166.3V103.266H1297.28V132.84H1248.02V223.527H1215.74V132.8Z" fill="black"/>
<path d="M522.855 103.13C536.327 103.13 549.253 103.109 562.18 103.211C562.989 103.211 563.98 104.101 564.587 104.829C576.542 119.11 588.477 133.433 600.412 147.734C600.756 148.159 601.141 148.544 601.646 149.09C606.38 143.446 611.053 137.903 615.705 132.34C623.433 123.136 631.12 113.891 638.888 104.728C639.535 103.979 640.668 103.19 641.598 103.19C653.877 103.089 666.177 103.13 678.476 103.13C678.698 103.13 678.921 103.211 679.528 103.312C677.464 105.8 675.563 108.146 673.621 110.452C655.577 132.057 637.532 153.661 619.427 175.225C618.214 176.682 617.728 178.118 617.728 180.02C617.809 193.553 617.769 207.086 617.769 220.619V223.431H584.856C584.856 222.46 584.856 221.59 584.856 220.72C584.856 207.025 584.897 193.33 584.796 179.635C584.796 178.341 584.229 176.783 583.38 175.792C563.778 152.225 544.115 128.719 524.473 105.193C524.028 104.647 523.603 104.08 522.855 103.109V103.13Z" fill="black"/>
</svg>
