<svg width="1336" height="509" viewBox="0 0 1336 509" fill="none" xmlns="http://www.w3.org/2000/svg">
<g clip-path="url(#clip0_2817_11)">
<path d="M189.702 4.43665C188.658 5.21973 187.875 32.8884 187.875 65.7777V125.292H153.432C97.5909 125.292 71.7581 133.383 42.794 160.008C25.8331 175.408 15.1347 191.853 7.82841 214.04C0.261219 236.488 1.30497 275.381 10.1768 298.352C22.7018 330.197 51.144 358.387 83.5003 370.917C101.505 377.703 134.644 380.314 154.475 376.137C204.314 365.696 245.021 322.627 253.11 271.466C254.675 261.547 255.719 202.033 255.719 128.424V2.60947H223.624C205.88 2.60947 190.485 3.39255 189.702 4.43665ZM187.875 228.919C187.875 261.025 186.832 269.378 182.917 277.992C173.002 299.135 150.561 313.23 126.816 313.23C103.853 313.23 76.455 292.87 70.4534 271.466C60.7987 237.272 79.3253 202.816 112.203 194.202C118.727 192.375 138.297 190.809 156.041 190.809L187.875 190.548V228.919Z" fill="#1A1E22"/>
<path d="M899.191 129.468C849.612 141.475 810.994 183.761 803.427 234.922C799.773 258.676 804.47 287.128 815.952 310.359C824.302 328.109 849.612 353.689 867.878 363.347C925.545 394.148 997.564 376.659 1033.31 323.149C1067.5 271.988 1059.41 202.033 1014.52 160.53C982.691 131.034 940.419 119.549 899.191 129.468ZM944.855 194.724C954.509 197.596 962.337 202.294 969.644 209.864C1008.52 248.496 980.342 313.491 925.023 313.23C902.583 312.969 877.794 293.914 869.966 270.683C858.745 236.489 878.577 201.772 914.586 192.897C926.589 190.026 929.459 190.287 944.855 194.724Z" fill="#1A1E22"/>
<path d="M1183.35 128.424C1151 134.428 1113.68 162.358 1098.03 192.115C1084.72 217.173 1082.89 229.963 1082.89 304.617V373.266H1115.51H1148.12V307.227C1148.12 243.537 1148.39 240.926 1154.39 228.136C1176.57 180.629 1242.32 182.457 1263.46 231.007C1265.55 236.489 1267.11 259.72 1268.16 305.4L1269.46 371.961L1302.86 372.744L1336.52 373.527L1335.48 299.657C1334.17 216.912 1333.13 210.647 1313.56 181.412C1286.16 139.909 1233.97 118.766 1183.35 128.424Z" fill="#1A1E22"/>
<path d="M644.516 130.513C617.117 137.56 593.894 153.744 584.239 173.06C572.497 195.508 575.367 223.96 591.023 242.232C605.636 259.198 624.162 267.29 693.572 287.128C707.141 291.044 713.664 294.437 716.795 299.135C720.97 305.4 720.709 305.922 713.925 312.709C707.662 318.973 704.792 319.756 685.483 320.539C667.478 321.323 660.433 320.278 643.211 314.536C631.73 310.882 618.422 305.4 613.464 302.529C608.767 299.657 604.331 297.569 604.07 298.091C594.416 310.359 574.062 339.594 574.062 341.16C574.062 344.032 597.808 358.388 613.986 365.175C679.22 392.844 748.63 380.836 774.202 337.506C784.378 320.017 785.683 290.522 777.072 274.077C765.069 251.89 742.889 239.622 683.134 221.872C650.256 211.953 643.472 208.82 642.428 202.034C641.123 192.637 650.517 187.155 671.392 185.85C689.658 184.806 692.789 185.328 737.148 196.813C741.323 198.118 745.237 194.464 756.197 179.064C763.503 168.361 769.766 158.443 769.766 156.876C769.766 152.961 742.367 139.649 723.841 134.689C705.575 129.469 657.562 127.119 644.516 130.513Z" fill="#1A1E22"/>
<path d="M292.25 200.467C292.25 254.76 293.033 273.815 296.164 285.822C308.167 331.763 343.916 364.652 392.45 375.093C420.37 380.836 446.203 375.876 466.556 360.737C471.253 357.343 475.689 354.994 476.211 355.516C479.342 358.648 471.253 392.321 463.686 407.199C443.594 447.397 402.888 456.533 353.57 432.258C343.655 427.298 335.305 423.383 335.044 423.644C335.044 423.905 327.477 433.302 318.866 444.526C309.994 455.75 302.688 465.669 302.688 466.713C302.688 470.367 330.608 486.812 349.656 494.121C365.052 500.124 374.706 502.213 394.538 503.257C468.644 506.911 515.873 472.978 532.313 404.328C540.402 369.089 542.75 331.241 542.75 227.614V130.512H510.133H477.516V192.636C477.516 260.764 475.428 274.598 463.425 290.521C454.553 302.267 433.156 313.23 419.327 313.23C394.538 313.23 373.923 300.179 363.747 278.253C357.745 265.462 357.484 262.852 357.484 197.596V130.512H324.867H292.25V200.467Z" fill="#1A1E22"/>
</g>
<defs>
<clipPath id="clip0_2817_11">
<rect width="1336" height="509" fill="white"/>
</clipPath>
</defs>
</svg>
